<?xml version="1.0" standalone="no"?><!DOCTYPE svg PUBLIC "-//W3C//DTD SVG 1.1//EN" "http://www.w3.org/Graphics/SVG/1.1/DTD/svg11.dtd"><svg class="icon" width="128px" height="128.00px" viewBox="0 0 1024 1024" version="1.1" xmlns="http://www.w3.org/2000/svg"><path fill="#8a8a8a" d="M669.46 243.58a32.52 32.52 0 0 0-45.93-1.91L356.45 487.41a32.5 32.5 0 0 0-0.06 47.77l267.08 247.09a32.5 32.5 0 1 0 44.14-47.72L426.39 511.39l241.16-221.88a32.52 32.52 0 0 0 1.91-45.93z"  /><path fill="#8a8a8a" d="M512 62.75C263.89 62.75 62.75 263.89 62.75 512S263.89 961.25 512 961.25 961.25 760.11 961.25 512 760.11 62.75 512 62.75z m271.71 721a382.88 382.88 0 1 1 82.37-122.16 383 383 0 0 1-82.37 122.12z"  /></svg>